<svg xmlns="http://www.w3.org/2000/svg" viewBox="0 0 40 40"><defs><linearGradient id="g" x1="0" y1="0" x2="1" y2="1"><stop offset="0" stop-color="#f1dfb3"/><stop offset=".45" stop-color="#c9a96b"/><stop offset="1" stop-color="#8f7440"/></linearGradient></defs><rect width="40" height="40" rx="11" fill="#0c0c0e"/><rect x="1.5" y="1.5" width="37" height="37" rx="10" fill="none" stroke="url(#g)" stroke-width="1.2"/><path d="M13 10.5h8.2c3.6 0 5.8 1.8 5.8 4.7 0 2-1.1 3.4-3 4 2.4.5 3.8 2.2 3.8 4.6 0 3.3-2.5 5.7-6.6 5.7H13Zm4 7.7h3.6c1.7 0 2.6-.8 2.6-2.2s-.9-2.1-2.6-2.1H17Zm0 8h4.1c1.9 0 3-.9 3-2.4s-1.1-2.4-3-2.4H17Z" fill="url(#g)"/></svg>
